{"title":"The Love Guru.2008DvDRip.XViD.Swe_Sub.avi","uid":5491680,"size":739692098,"categoryP":"video","categoryS":"movies","magnet":"?xt=urn:btih:869ff7061914818e2fba197c05d37c50d8754d27&amp;dn=The+Love+Guru.2008DvDRip.XViD.Swe_Sub.avi&amp;tr=udp%3A%2F%2Ftracker.openbittorrent.com%3A80&amp;tr=udp%3A%2F%2Fopen.demonii.com%3A1337&amp;tr=udp%3A%2F%2Ftracker.coppersurfer.tk%3A6969&amp;tr=udp%3A%2F%2Fexodus.desync.com%3A6969","seeders":2,"leechers":0,"uploader":"Zen_Bud","files":-1,"time":1271062227,"description":"General\nComplete name                    : The Love Guru.avi\nFormat                           : AVI\nFile size                        : 705 MiB\nDuration                         : 1h 23mn\nOverall bit rate                 : 1 187 Kbps\n\nVideo\nID                               : 0\nFormat                           : MPEG-4 Visual\nCodec ID/Hint                    : XviD\nDuration                         : 1h 23mn\nBit rate                         : 1 046 Kbps\nWidth                            : 716 pixels\nHeight                           : 428 pixels\nDisplay aspect ratio             : 2.35:1\nFrame rate                       : 25.000 fps\nResolution                       : 8 bits\nColorimetry                      : 4:2:0\nScan type                        : Progressive\nBits/(Pixel*Frame)               : 0.137\nStream size                      : 622 MiB (88%)\nWriting library                  : XviD 1.1.2 (UTC 2006-11-01)\n\nAudio\nID                               : 1\nFormat                           : MPEG Audio\nFormat_Settings_ModeExtension    : MS Stereo\nCodec ID                         : 55\nCodec ID/Hint                    : MP3\nDuration                         : 1h 23mn\nBit rate mode                    : Constant\nBit rate                         : 128 Kbps\nChannel(s)                       : 2 channels\nSampling rate                    : 48.0 KHz\nStream size                      : 76.1 MiB (11%)\nWriting library                  : LAME3.98\n\n","torrent":{"xt":"urn:btih:869ff7061914818e2fba197c05d37c50d8754d27","amp;dn":"The+Love+Guru.2008DvDRip.XViD.Swe_Sub.avi","amp;tr":["udp%3A%2F%2Ftracker.openbittorrent.com%3A80","udp%3A%2F%2Fopen.demonii.com%3A1337","udp%3A%2F%2Ftracker.coppersurfer.tk%3A6969","udp%3A%2F%2Fexodus.desync.com%3A6969"],"infoHash":"869ff7061914818e2fba197c05d37c50d8754d27","infoHashBuffer":{"type":"Buffer","data":[134,159,247,6,25,20,129,142,47,186,25,124,5,211,124,80,216,117,77,39]},"announce":[],"urlList":[]}}